<svg width="40" height="18" viewBox="0 0 40 18" fill="none" xmlns="http://www.w3.org/2000/svg">
<g clip-path="url(#clip0)">
<path d="M-1.46551e-05 17.0779C-0.171984 17.2145 6.25966 7.95832 13.0008 8.09494C18.4695 8.19741 20.8082 13.0817 27.0335 13.5598C32.1582 13.9355 36.6294 11.4422 39.4153 9.11961C39.4153 9.11961 33.4652 18.0684 27.1367 18.0001C17.1969 17.0437 13.9983 4.71354 -1.46551e-05 17.0779Z" fill="#6B5E72"/>
<path d="M0.584702 8.98295C0.412733 9.15373 6.84438 -0.136595 13.5856 2.74486e-05C19.0542 0.102494 21.393 4.98674 27.6182 5.46492C32.7429 5.84063 37.2141 3.34728 40 1.0247C40 1.0247 34.0499 9.97346 27.7214 9.90515C17.7472 8.94879 14.5486 -3.38138 0.584702 8.98295Z" fill="#6B5E72"/>
</g>
<defs>
<clipPath id="clip0">
<rect width="40" height="18" fill="white"/>
</clipPath>
</defs>
</svg>
