<svg width="29" height="29" viewBox="0 0 29 29" fill="none" xmlns="http://www.w3.org/2000/svg">
<g clip-path="url(#clip0)">
<path d="M29 0H0V29H29V0Z" fill="url(#paint0_linear)"/>
<path d="M29.0003 14.5476C29.0097 11.6778 28.1673 8.86968 26.5798 6.47891C24.9923 4.08814 22.731 2.22223 20.0823 1.11745C17.4336 0.0126655 14.5167 -0.281289 11.7008 0.272805C8.88495 0.826899 6.29684 2.20412 4.26421 4.23007C2.23158 6.25602 0.84585 8.83958 0.282492 11.6536C-0.280866 14.4676 0.00348676 17.3855 1.09954 20.0378C2.1956 22.6901 4.05406 24.9575 6.4396 26.5529C8.82513 28.1483 11.6304 29 14.5003 29H14.6246V18.9142H11.1342V14.8853H14.6246V11.9128C14.6246 8.46591 16.7374 6.58712 19.8239 6.58712C20.8659 6.58319 21.9073 6.63644 22.9434 6.74662V10.3571H20.8037C19.1237 10.3571 18.8006 11.1525 18.8006 12.3188V14.8853H22.8026L22.2827 18.9142H18.8006V28.3537C21.7521 27.4432 24.3347 25.6118 26.1701 23.1274C28.0055 20.6431 28.9973 17.6364 29.0003 14.5476Z" fill="url(#paint1_linear)"/>
<path d="M22.2823 18.9142L22.8023 14.8853H18.8003V12.3126C18.8003 11.1464 19.1234 10.3509 20.8033 10.3509H22.9431V6.74665C21.907 6.63647 20.8655 6.58322 19.8236 6.58715C16.7371 6.58715 14.6243 8.46593 14.6243 11.9128V14.8853H11.1339V18.9142H14.6243V29C16.0402 28.9895 17.447 28.7725 18.8003 28.3558V18.9142H22.2823Z" fill="#E9E9E9"/>
</g>
<defs>
<linearGradient id="paint0_linear" x1="0" y1="14.5" x2="29" y2="14.5" gradientUnits="userSpaceOnUse">
<stop stop-color="#AF86BB"/>
<stop offset="0.49" stop-color="#9E88A8"/>
</linearGradient>
<linearGradient id="paint1_linear" x1="0.000366211" y1="2036.67" x2="29.0004" y2="2036.67" gradientUnits="userSpaceOnUse">
<stop stop-color="#AF86BB"/>
<stop offset="0.49" stop-color="#9E88A8"/>
</linearGradient>
<clipPath id="clip0">
<rect width="29" height="29" fill="white"/>
</clipPath>
</defs>
</svg>
