<svg width="29" height="29" viewBox="0 0 29 29" fill="none" xmlns="http://www.w3.org/2000/svg">
<path d="M29 0H0V29H29V0Z" fill="url(#paint0_linear)"/>
<path d="M28.8074 14.5C28.8074 22.5081 22.359 29 14.4047 29C6.45043 29 0 22.5081 0 14.5C0 6.49186 6.44836 0 14.4047 0C22.3611 0 28.8074 6.49186 28.8074 14.5Z" fill="url(#paint1_linear)"/>
<path d="M18.3073 24.2854H10.5022C8.83113 24.2777 7.2313 23.6077 6.05354 22.4221C4.87579 21.2366 4.21625 19.6324 4.21956 17.9613V11.0386C4.2157 9.36735 4.87507 7.76284 6.05294 6.5772C7.23081 5.39156 8.83096 4.72167 10.5022 4.71454H18.3073C19.9782 4.72221 21.5779 5.39235 22.7553 6.57793C23.9327 7.7635 24.5918 9.36771 24.5879 11.0386V17.9613C24.5918 19.6322 23.9327 21.2364 22.7553 22.422C21.5779 23.6076 19.9782 24.2777 18.3073 24.2854ZM10.5022 6.11897C9.20217 6.12445 7.95743 6.64559 7.04127 7.56796C6.12511 8.49034 5.6124 9.73857 5.6157 11.0386V17.9613C5.61295 19.2612 6.12583 20.5091 7.04188 21.4314C7.95792 22.3536 9.20234 22.8749 10.5022 22.881H18.3073C19.6083 22.8766 20.8543 22.356 21.7717 21.4336C22.6891 20.5111 23.2028 19.2623 23.2001 17.9613V11.0386C23.2034 9.73749 22.6898 8.48832 21.7723 7.56577C20.8548 6.64322 19.6085 6.12281 18.3073 6.11897H10.5022Z" fill="#E9E9E9"/>
<path d="M14.4048 20.1301C13.2896 20.1379 12.1972 19.8144 11.2662 19.2005C10.3352 18.5866 9.60742 17.71 9.17524 16.682C8.74307 15.6539 8.62594 14.5207 8.83872 13.4259C9.05149 12.3312 9.58458 11.3243 10.3704 10.533C11.1562 9.74168 12.1593 9.20154 13.2525 8.98109C14.3457 8.76065 15.4797 8.86982 16.5108 9.29477C17.5419 9.71972 18.4235 10.4413 19.0439 11.368C19.6643 12.2947 19.9955 13.3848 19.9956 14.5C19.9989 15.9874 19.4122 17.4154 18.3641 18.4709C17.316 19.5263 15.8922 20.123 14.4048 20.1301ZM14.4048 10.2764C13.5682 10.2706 12.7488 10.5134 12.0504 10.974C11.352 11.4346 10.8062 12.0922 10.482 12.8635C10.1579 13.6347 10.0701 14.4849 10.2298 15.3061C10.3895 16.1273 10.7894 16.8826 11.379 17.4762C11.9685 18.0698 12.721 18.4749 13.5411 18.6402C14.3612 18.8056 15.2119 18.7236 15.9853 18.4048C16.7588 18.086 17.4202 17.5447 17.8856 16.8495C18.351 16.1543 18.5994 15.3366 18.5994 14.5C18.6016 13.3842 18.1613 12.313 17.375 11.5212C16.5887 10.7295 15.5206 10.2818 14.4048 10.2764Z" fill="#E9E9E9"/>
<path d="M21.0706 9.04383C21.0682 9.27271 20.998 9.49575 20.8691 9.68487C20.7402 9.87398 20.5581 10.0207 20.346 10.1066C20.1338 10.1925 19.901 10.2137 19.6768 10.1676C19.4526 10.1214 19.2471 10.01 19.0861 9.84726C18.9251 9.68455 18.8158 9.47784 18.7721 9.25317C18.7283 9.0285 18.752 8.7959 18.8401 8.58466C18.9283 8.37342 19.077 8.19298 19.2675 8.06606C19.4579 7.93914 19.6817 7.87141 19.9106 7.8714C20.0638 7.87221 20.2152 7.90318 20.3564 7.96255C20.4976 8.02191 20.6257 8.10849 20.7334 8.21736C20.8411 8.32623 20.9264 8.45526 20.9842 8.59706C21.0421 8.73887 21.0714 8.89068 21.0706 9.04383Z" fill="#E9E9E9"/>
<rect x="0.25" y="0.25" width="28.5" height="28.5" stroke="#E5E5E5" stroke-width="0.5"/>
<defs>
<linearGradient id="paint0_linear" x1="0" y1="14.5" x2="29" y2="14.5" gradientUnits="userSpaceOnUse">
<stop stop-color="#AF86BB"/>
<stop offset="0.49" stop-color="#9E88A8"/>
</linearGradient>
<linearGradient id="paint1_linear" x1="0" y1="0" x2="4006.24" y2="0" gradientUnits="userSpaceOnUse">
<stop stop-color="#AF86BB"/>
<stop offset="0.49" stop-color="#9E88A8"/>
</linearGradient>
</defs>
</svg>
