<svg width="29" height="29" viewBox="0 0 29 29" fill="none" xmlns="http://www.w3.org/2000/svg">
<g clip-path="url(#clip0)">
<path d="M29 0H0V29H29V0Z" fill="url(#paint0_linear)"/>
<path d="M28.6147 14.8625C28.6131 17.6562 27.7831 20.3867 26.2298 22.7088C24.6765 25.0309 22.4696 26.8404 19.888 27.9084C17.3065 28.9763 14.4663 29.2549 11.7264 28.7089C8.98656 28.1628 6.47012 26.8167 4.49523 24.8407C2.52035 22.8646 1.17569 20.3474 0.631262 17.6072C0.0868348 14.867 0.367083 12.027 1.43658 9.44606C2.50607 6.86514 4.31678 4.65927 6.6398 3.10733C8.96282 1.55539 11.6938 0.727051 14.4876 0.727051C16.3433 0.727595 18.1808 1.09365 19.8951 1.80432C21.6093 2.51498 23.1668 3.55634 24.4787 4.86894C25.7905 6.18153 26.8309 7.73966 27.5406 9.45436C28.2503 11.1691 28.6152 13.0067 28.6147 14.8625Z" fill="#E9E9E9"/>
<path d="M14.5 -0.000809818C6.57679 -0.0815955 0.0849286 6.40405 0 14.4992C0.029 20.7943 4.03307 26.354 9.91179 28.2597C10.6368 28.3943 10.904 27.949 10.904 27.5616V25.0883C6.87093 25.9625 6.01543 23.1536 6.01543 23.1536C5.75102 22.2746 5.17989 21.5197 4.40593 21.0263C3.08643 20.1355 4.51364 20.1542 4.51364 20.1542C4.97164 20.2179 5.40911 20.3851 5.7928 20.6432C6.17649 20.9012 6.49632 21.2434 6.728 21.6435C6.92518 22.0007 7.19118 22.3153 7.51063 22.5691C7.83009 22.8229 8.19666 23.0109 8.58919 23.1223C8.98171 23.2336 9.3924 23.266 9.79754 23.2177C10.2027 23.1694 10.5942 23.0413 10.9496 22.8408C11.0229 22.1079 11.3488 21.4232 11.8714 20.904C8.65443 20.5395 5.278 19.3028 5.278 13.7493C5.24906 12.3063 5.77215 10.9067 6.74043 9.8364C6.29778 8.59142 6.35044 7.22395 6.8875 6.01669C6.8875 6.01669 8.11171 5.62312 10.8419 7.49569C13.2153 6.84942 15.7184 6.84942 18.0919 7.49569C20.8614 5.6314 22.0441 6.01669 22.0441 6.01669C22.576 7.22516 22.6286 8.59062 22.1912 9.8364C23.186 10.8868 23.7379 12.2799 23.7324 13.7265C23.7324 19.2925 20.3331 20.5167 17.139 20.8813C17.4904 21.2309 17.7612 21.653 17.9326 22.1181C18.104 22.5832 18.1718 23.0801 18.1312 23.5741V27.5492C18.1312 28.0173 18.3964 28.3985 19.1214 28.2493C24.9731 26.3063 28.9669 20.7715 29 14.4992C28.9151 6.40405 22.4232 -0.0815955 14.5 -0.000809818Z" fill="url(#paint1_linear)"/>
</g>
<defs>
<linearGradient id="paint0_linear" x1="0" y1="14.5" x2="29" y2="14.5" gradientUnits="userSpaceOnUse">
<stop stop-color="#AF86BB"/>
<stop offset="0.49" stop-color="#9E88A8"/>
</linearGradient>
<linearGradient id="paint1_linear" x1="0" y1="1930.5" x2="29" y2="1930.5" gradientUnits="userSpaceOnUse">
<stop stop-color="#AF86BB"/>
<stop offset="0.49" stop-color="#9E88A8"/>
</linearGradient>
<clipPath id="clip0">
<rect width="29" height="29" fill="white"/>
</clipPath>
</defs>
</svg>
