<svg width="29" height="29" viewBox="0 0 29 29" fill="none" xmlns="http://www.w3.org/2000/svg">
<path d="M29 0H0V29H29V0Z" fill="url(#paint0_linear)"/>
<path d="M14.5 29C22.5081 29 29 22.5081 29 14.5C29 6.49187 22.5081 0 14.5 0C6.49187 0 0 6.49187 0 14.5C0 22.5081 6.49187 29 14.5 29Z" fill="url(#paint1_linear)"/>
<path d="M9.06656 11.2023H4.98999V24.3186H9.06656V11.2023Z" fill="#E9E9E9"/>
<path d="M7.03043 9.4084C6.56297 9.40881 6.10589 9.27059 5.71699 9.01123C5.32809 8.75186 5.02483 8.383 4.84556 7.95128C4.6663 7.51957 4.61907 7.04439 4.70987 6.58583C4.80066 6.12728 5.02539 5.70595 5.35565 5.37512C5.6859 5.04429 6.10684 4.81881 6.56523 4.72722C7.02362 4.63562 7.49888 4.68201 7.93091 4.86052C8.36294 5.03903 8.73234 5.34164 8.99238 5.73009C9.25243 6.11853 9.39145 6.57537 9.39186 7.04283C9.39213 7.3532 9.33126 7.6606 9.21274 7.94746C9.09421 8.23431 8.92035 8.49502 8.70107 8.71468C8.48179 8.93434 8.22139 9.10867 7.93474 9.22769C7.64809 9.34672 7.34081 9.40812 7.03043 9.4084Z" fill="#E9E9E9"/>
<path d="M24.335 24.3165H20.2605V17.9386C20.2605 16.4181 20.2336 14.4627 18.1415 14.4627C16.0493 14.4627 15.6951 16.1199 15.6951 17.8288V24.3165H11.6227V11.2023H15.5356V12.9941H15.5895C16.1343 11.9584 17.4538 10.875 19.4465 10.875C23.5748 10.875 24.3371 13.5927 24.3371 17.1245L24.335 24.3165Z" fill="#E9E9E9"/>
<rect x="0.25" y="0.25" width="28.5" height="28.5" stroke="#E5E5E5" stroke-width="0.5"/>
<defs>
<linearGradient id="paint0_linear" x1="0" y1="14.5" x2="29" y2="14.5" gradientUnits="userSpaceOnUse">
<stop stop-color="#AF86BB"/>
<stop offset="0.49" stop-color="#9E88A8"/>
</linearGradient>
<linearGradient id="paint1_linear" x1="0" y1="14.5" x2="29" y2="14.5" gradientUnits="userSpaceOnUse">
<stop stop-color="#AF86BB"/>
<stop offset="0.49" stop-color="#9E88A8"/>
</linearGradient>
</defs>
</svg>
