<svg width="34" height="50" viewBox="0 0 34 50" fill="none" xmlns="http://www.w3.org/2000/svg">
<g clip-path="url(#clip0)">
<path d="M8.32921 50.0002C12.9263 50.0002 16.6584 46.2681 16.6584 41.671V33.3418H8.32921C3.73208 33.3418 0 37.0739 0 41.671C0 46.2681 3.73208 50.0002 8.32921 50.0002Z" fill="#4CB37D"/>
<path d="M0 25.0001C0 20.403 3.73208 16.6709 8.32921 16.6709H16.6584V33.3417H8.32921C3.73208 33.3417 0 29.5972 0 25.0001Z" fill="#765FA6"/>
<path d="M0 8.32921C0 3.73208 3.73208 0 8.32921 0H16.6584V16.6708H8.32921C3.73208 16.6708 0 12.9387 0 8.32921Z" fill="#E95025"/>
<path d="M16.6708 0H25C29.5971 0 33.3292 3.73208 33.3292 8.32921C33.3292 12.9263 29.5971 16.6584 25 16.6584H16.6708V0Z" fill="#EE7265"/>
<path d="M33.3416 25.0001C33.3416 29.5972 29.6095 33.3293 25.0123 33.3293C20.4152 33.3293 16.6831 29.5972 16.6831 25.0001C16.6831 20.403 20.4152 16.6709 25.0123 16.6709C29.6095 16.6709 33.3416 20.403 33.3416 25.0001Z" fill="#46B7EA"/>
</g>
<defs>
<clipPath id="clip0">
<rect width="33.3416" height="50" fill="white"/>
</clipPath>
</defs>
</svg>
