<svg width="36" height="50" viewBox="0 0 36 50" fill="none" xmlns="http://www.w3.org/2000/svg">
<g clip-path="url(#clip0)">
<path d="M3.22119 45.9795L0 9.83057H35.4211L32.2 45.9795L17.6927 50L3.22119 45.9795Z" fill="#020203"/>
<path d="M17.7046 46.9222L29.4202 43.6772L32.1761 12.7896H17.7046V46.9222Z" fill="#020203"/>
<path d="M17.7046 26.1871H11.8468L11.4412 21.6417H17.7165V17.2036H6.58554L6.69291 18.3966L7.77857 30.6133H17.7046V26.1871ZM17.7046 37.7118H17.6808L12.7416 36.3756L12.4314 32.8443H7.98139L8.60177 39.8116L17.6808 42.3289H17.7046V37.7118Z" fill="#EBEBEB"/>
<path d="M3.29276 0H5.54759V2.23097H7.61153V0H9.86636V6.74063H7.61153V4.4858H5.54759V6.74063H3.29276V0ZM12.8251 2.23097H10.8447V0H17.0604V2.23097H15.0799V6.74063H12.8251V2.23097ZM18.0506 0H20.4008L21.8444 2.37413L23.288 0H25.6383V6.74063H23.3954V3.40014L21.8444 5.79814H21.8086L20.2577 3.40014V6.74063H18.0506V0ZM26.7597 0H29.0145V4.50966H32.188V6.74063H26.7597V0Z" fill="#020203"/>
<path d="M17.6927 26.1869V30.625H23.1568L22.6438 36.3754L17.6927 37.7116V42.3287L26.7836 39.8114L26.8552 39.0598L27.8931 27.3919L28.0005 26.1989H26.8075L17.6927 26.1869ZM17.6927 17.2153V21.6534H28.4061L28.4896 20.6513L28.6924 18.4084L28.7998 17.2153H17.6927Z" fill="white"/>
</g>
<defs>
<clipPath id="clip0">
<rect width="35.4211" height="50" fill="white"/>
</clipPath>
</defs>
</svg>
