<svg width="63" height="50" viewBox="0 0 63 50" fill="none" xmlns="http://www.w3.org/2000/svg">
<g clip-path="url(#clip0)">
<path fill-rule="evenodd" clip-rule="evenodd" d="M13.0398 0C9.45718 0 6.80338 3.13631 6.92401 6.538C7.03257 9.807 6.88782 14.0289 5.8263 17.4789C4.75271 20.9409 2.95537 23.1363 0 23.4138V26.5862C2.95537 26.8637 4.75271 29.0591 5.8263 32.5211C6.88782 35.9711 7.04463 40.2051 6.92401 43.462C6.80338 46.8637 9.45718 50 13.0398 50H49.7346C53.3172 50 55.9711 46.8637 55.8504 43.462C55.7419 40.193 55.8866 35.9711 56.9481 32.5211C58.0217 29.0591 59.8191 26.8637 62.7744 26.5862V23.4138C59.8191 23.1363 58.0217 20.9409 56.9481 17.4789C55.8866 14.0289 55.7298 9.79493 55.8504 6.538C55.9711 3.13631 53.3172 0 49.7346 0H13.0398ZM42.5573 30.7841C42.5573 35.4644 39.0712 38.2992 33.269 38.2992H23.4017C22.8106 38.2992 22.3402 37.8287 22.3402 37.2376V12.7624C22.3402 12.1713 22.8106 11.7008 23.4017 11.7008H33.2087C38.0458 11.7008 41.2063 14.3185 41.2063 18.3353C41.2063 21.158 39.0712 23.6791 36.3571 24.1255V24.2702C40.0603 24.6803 42.5573 27.2376 42.5573 30.7841ZM32.1954 15.0784H26.5742V23.0277H31.3148C34.9819 23.0277 36.9964 21.5561 36.9964 18.9144C36.9843 16.4415 35.2473 15.0784 32.1954 15.0784ZM26.5742 26.1761V34.9337H32.4005C36.2123 34.9337 38.2268 33.4017 38.2268 30.5308C38.2268 27.6598 36.152 26.1761 32.1592 26.1761H26.5742Z" fill="#70539E"/>
</g>
<defs>
<clipPath id="clip0">
<rect width="62.7744" height="50" fill="white"/>
</clipPath>
</defs>
</svg>
