<svg width="50" height="50" viewBox="0 0 50 50" fill="none" xmlns="http://www.w3.org/2000/svg">
<path d="M3.54816 24.9938C3.54816 33.478 8.48419 40.8157 15.6288 44.2914L5.40671 16.2682C4.18779 19.0199 3.54816 21.9887 3.54816 24.9938ZM39.4762 23.9197C39.4762 21.2646 38.5228 19.4302 37.7022 18.0061C36.616 16.2441 35.6022 14.7476 35.6022 12.9735C35.6022 11.0064 37.0987 9.17193 39.1987 9.17193C39.2952 9.17193 39.3797 9.184 39.4762 9.184C35.6626 5.68412 30.5817 3.56006 24.994 3.56006C17.4994 3.56006 10.91 7.39786 7.07217 13.227C7.57905 13.239 8.04973 13.2511 8.44799 13.2511C10.6927 13.2511 14.1685 12.9735 14.1685 12.9735C15.3271 12.9011 15.4598 14.6028 14.3012 14.7355C14.3012 14.7355 13.1427 14.8683 11.8513 14.9407L19.6717 38.1727L24.3664 24.1007L21.0234 14.9528C19.8648 14.8804 18.7787 14.7476 18.7787 14.7476C17.6201 14.6752 17.7528 12.9132 18.9114 12.9856C18.9114 12.9856 22.4475 13.2632 24.5595 13.2632C26.8043 13.2632 30.28 12.9856 30.28 12.9856C31.4386 12.9132 31.5713 14.6149 30.4127 14.7476C30.4127 14.7476 29.2542 14.8804 27.9628 14.9528L35.7108 38.0037L37.847 30.8591C38.7642 27.8782 39.4762 25.7541 39.4762 23.9197Z" fill="#05759B"/>
<path d="M25.3681 26.8765L18.9355 45.5707C20.9027 46.15 22.9423 46.4396 24.994 46.4396C27.4921 46.4396 29.8817 46.0052 32.1144 45.2207C32.0541 45.1242 32.0058 45.0276 31.9575 44.9311L25.3681 26.8765ZM43.8088 14.7114C43.9054 15.3993 43.9536 16.1234 43.9536 16.92C43.9536 19.0923 43.5433 21.5422 42.3244 24.5956L35.7712 43.5311C42.1434 39.814 46.4398 32.9108 46.4398 24.9938C46.4518 21.3974 45.5467 17.8613 43.8088 14.7114Z" fill="#05759B"/>
<path d="M24.994 0C11.2117 0 0 11.2117 0 24.994C0 38.7762 11.2117 49.9879 24.994 49.9879C38.7762 49.9879 49.9879 38.7762 49.9879 24.994C50 11.2117 38.7762 0 24.994 0ZM24.994 48.8535C11.8392 48.8535 1.14651 38.1487 1.14651 25.006C1.14651 11.8513 11.8513 1.14651 24.994 1.14651C38.1487 1.14651 48.8414 11.8513 48.8414 24.994C48.8535 38.1487 38.1487 48.8535 24.994 48.8535Z" fill="#05759B"/>
</svg>
