<svg width="52" height="50" viewBox="0 0 52 50" fill="none" xmlns="http://www.w3.org/2000/svg">
<g clip-path="url(#clip0)">
<path d="M2.1375 2.13721H49.1499V47.8622H2.1375V2.13721Z" fill="#280E1F"/>
<path d="M0 0V50H51.2873V0H0ZM2.13748 2.13748H49.1499V47.8625H2.13748V2.13748Z" fill="#CB4D96"/>
<path d="M37.248 21.0106C36.9322 20.8649 36.5193 20.792 36.0092 20.792C33.3131 20.792 31.5278 22.8688 31.5278 26.3057C31.5278 30.2406 33.3617 31.8195 35.7542 31.8195C36.2643 31.8195 36.8229 31.7587 37.2237 31.5887V21.0106H37.248ZM27.6658 26.4758C27.6658 21.4964 30.872 17.6101 36.1307 17.6101C36.58 17.6101 36.8108 17.6101 37.2358 17.6587V12.0963C37.2358 11.9628 37.3451 11.8777 37.4544 11.8777H40.8914C41.0614 11.8777 41.11 11.9385 41.11 12.0478V31.5766C41.11 32.1595 41.11 32.8761 41.2193 33.6655C41.2193 33.8112 41.2193 33.8355 41.0857 33.8962C39.2883 34.7464 37.4059 35.135 35.6206 35.135C30.9813 35.1471 27.6658 32.2931 27.6658 26.4758ZM20.391 23.0145L26.3784 34.6128C26.4877 34.7828 26.427 34.9528 26.2448 34.9528H22.5285C22.2978 34.9528 22.1885 34.8921 22.0792 34.6735C20.7068 31.8559 19.3223 28.929 17.8892 25.8928H17.8406C16.5533 28.759 15.1445 31.8802 13.7843 34.6978C13.675 34.8678 13.5657 34.9285 13.3957 34.9285H9.84939C9.63078 34.9285 9.61864 34.7585 9.71579 34.6249L15.5696 23.3667L9.91011 12.1692C9.77652 11.9992 9.91011 11.8535 10.0558 11.8535H13.7357C13.9543 11.8535 14.0515 11.902 14.1243 12.0842C15.4724 14.9261 16.8326 17.7194 18.12 20.5855H18.1686C19.4073 17.768 20.7797 14.9261 22.0792 12.1206C22.1885 11.9506 22.2492 11.8413 22.4678 11.8413H25.9048C26.0748 11.8413 26.1355 11.9749 26.0384 12.1571L20.391 23.0145Z" fill="#CB4D96"/>
</g>
<defs>
<clipPath id="clip0">
<rect width="51.2873" height="50" fill="white"/>
</clipPath>
</defs>
</svg>
