<svg width="52" height="50" viewBox="0 0 52 50" fill="none" xmlns="http://www.w3.org/2000/svg">
<g clip-path="url(#clip0)">
<path d="M2.13792 2.1377H49.1473V47.8619H2.13792V2.1377Z" fill="url(#paint0_radial)"/>
<path d="M2.13791 2.13791H49.1473V47.8621H2.13791V2.13791ZM0 50H51.2852V0H0V50ZM34.5774 20.5141C32.8843 20.5141 32.3159 21.3668 32.3159 22.0712C32.3159 22.8374 32.699 23.3688 34.9605 24.5551C38.3094 26.174 39.3599 27.7435 39.3599 30.0297C39.3599 33.4528 36.7523 35.2818 33.2304 35.2818C31.3767 35.2818 29.7701 34.8987 28.8557 34.3673C28.7074 34.3055 28.6827 34.1943 28.6827 34.0213V30.8824C28.6827 30.6723 28.7939 30.6105 28.9422 30.7093C30.2892 31.5868 31.8216 31.9698 33.2427 31.9698C34.9357 31.9698 35.6401 31.2654 35.6401 30.3015C35.6401 29.5353 35.1458 28.8433 32.9956 27.7311C29.9555 26.2729 28.695 24.8023 28.695 22.3431C28.695 19.5872 30.8576 17.301 34.5897 17.301C36.431 17.301 37.7039 17.5729 38.4207 17.8942C38.5937 18.0054 38.6307 18.1661 38.6307 18.3267V21.2556C38.6307 21.4286 38.5195 21.5274 38.3094 21.4656C37.3579 20.8725 35.9614 20.5141 34.5774 20.5141ZM16.2012 23.0598C16.6955 23.0969 17.0786 23.0969 17.9313 23.0969C20.4276 23.0969 22.7879 22.2195 22.7879 18.8211C22.7879 16.1023 21.0949 14.743 18.2526 14.743C17.3999 14.743 16.5843 14.78 16.2012 14.8047V23.0598ZM12.395 11.7153C12.395 11.567 12.6915 11.4558 12.8646 11.4558C14.2363 11.394 16.263 11.3445 18.3762 11.3445C24.2956 11.3445 26.6065 14.5947 26.6065 18.7346C26.6065 24.1597 22.6767 26.4953 17.8448 26.4953C17.0292 26.4953 16.7573 26.4582 16.1765 26.4582V34.6639C16.1765 34.8369 16.1147 34.9234 15.917 34.9234H12.6421C12.4691 34.9234 12.3826 34.8616 12.3826 34.6639L12.395 11.7153Z" fill="#41BFEA"/>
</g>
<defs>
<radialGradient id="paint0_radial" cx="0" cy="0" r="1" gradientUnits="userSpaceOnUse" gradientTransform="translate(17.6512 12.3889) scale(35.7401 34.6029)">
<stop stop-color="#35364E" stop-opacity="0.98"/>
<stop offset="1" stop-color="#111023"/>
</radialGradient>
<clipPath id="clip0">
<rect width="51.2852" height="50" fill="white"/>
</clipPath>
</defs>
</svg>
