<svg width="246" height="36" viewBox="0 0 246 36" fill="none" xmlns="http://www.w3.org/2000/svg">
<path d="M48 20.5665L12.0642 36L8 29.0391L36.5262 18.4228V17.5687L8 6.90107L12.0556 0L47.9914 15.4335L48 20.5665Z" fill="#9E88A9"/>
<path d="M0 15.4335L35.9358 0L39.9914 6.90107L11.4738 17.5772V18.4313L40 29.0391L35.9358 36L0 20.5665V15.4335Z" fill="#6B5E72"/>
<path d="M66.6594 26C65.8799 26.0035 65.1091 25.8369 64.4006 25.5118C63.6773 25.1925 63.0262 24.7301 62.4863 24.1525C61.9525 23.5693 61.5336 22.8905 61.2517 22.1518C60.9457 21.3814 60.7929 20.5587 60.8018 19.7299C60.7885 18.6671 61.0489 17.6187 61.5579 16.6857C62.0451 15.791 62.7536 15.0362 63.6158 14.4936C64.4726 13.9461 65.4704 13.66 66.4871 13.6703C67.5331 13.6533 68.5612 13.9428 69.4446 14.5032C70.3316 15.0732 71.06 15.8583 71.5621 16.7856C72.0641 17.7128 72.3235 18.752 72.316 19.8064V19.9883C72.3245 20.0487 72.3245 20.1099 72.316 20.1702H61.6537C61.7151 21.0933 61.9938 21.9888 62.4672 22.7836C62.9056 23.5625 63.5305 24.2203 64.2857 24.6981C65.0111 25.1532 65.851 25.3923 66.7073 25.3873C67.5736 25.3876 68.4238 25.1527 69.1671 24.7077C69.8755 24.3122 70.4439 23.7069 70.7942 22.975L71.5024 23.1569C71.2622 23.7291 70.8958 24.2396 70.4305 24.6502C69.927 25.0961 69.3464 25.4465 68.7172 25.6841C68.0562 25.9139 67.3589 26.021 66.6594 26ZM61.6249 19.4618H71.5982C71.56 18.5262 71.2973 17.6134 70.8325 16.8006C70.4005 16.0549 69.7884 15.4295 69.0522 14.9818C68.3085 14.5398 67.4574 14.3113 66.5924 14.3213C65.7394 14.3114 64.9007 14.5401 64.1709 14.9818C63.4349 15.4309 62.8255 16.0601 62.4002 16.8102C61.9404 17.6223 61.6751 18.5299 61.6249 19.4618Z" fill="#202020"/>
<path d="M74.6992 25.7702V24.0759H75.4075V25.7702H74.6992Z" fill="#202020"/>
<path d="M83.2655 26C82.4897 26.0069 81.7219 25.8435 81.0162 25.5213C80.3158 25.2097 79.6894 24.7529 79.1786 24.1812C78.6572 23.603 78.2453 22.9348 77.963 22.2092C77.6656 21.46 77.5161 20.6603 77.5227 19.8543C77.5211 19.0385 77.6738 18.2298 77.9726 17.4707C78.2596 16.7424 78.6745 16.0713 79.1977 15.4891C79.7125 14.9218 80.3379 14.4657 81.0354 14.1489C81.7382 13.8333 82.4998 13.6701 83.2703 13.6701C84.0407 13.6701 84.8023 13.8333 85.5051 14.1489C86.2026 14.4657 86.828 14.9218 87.3428 15.4891C88.1536 16.3793 88.7004 17.4778 88.9219 18.6614C89.1433 19.845 89.0307 21.0669 88.5966 22.19C88.3146 22.9179 87.8991 23.5867 87.3715 24.162C86.8531 24.7253 86.2286 25.1807 85.5338 25.5022C84.8238 25.8337 84.0491 26.0037 83.2655 26ZM78.3554 19.883C78.3445 20.8302 78.5716 21.765 79.0158 22.6017C79.4439 23.3819 80.063 24.0407 80.8152 24.5162C81.5572 24.9944 82.4211 25.2487 83.3038 25.2487C84.1864 25.2487 85.0503 24.9944 85.7923 24.5162C86.5546 24.021 87.1773 23.3388 87.6012 22.5347C88.047 21.6961 88.2802 20.7609 88.2802 19.8112C88.2802 18.8615 88.047 17.9263 87.6012 17.0878C87.1746 16.2881 86.5522 15.6096 85.7923 15.1158C85.0578 14.632 84.1976 14.3742 83.3181 14.3742C82.4386 14.3742 81.5785 14.632 80.8439 15.1158C80.0828 15.6205 79.4607 16.3084 79.035 17.1165C78.5722 17.964 78.338 18.9175 78.3554 19.883Z" fill="#202020"/>
<path d="M91.1426 25.7702V24.0759H91.8604V25.7702H91.1426Z" fill="#202020"/>
<path d="M113.128 9.60191H113.932L116.458 15.6327L119.033 9.61148H119.837L116.966 16.3602L120.641 24.8417L127.169 9.45831H128.04L120.986 25.732H120.21L116.468 17.0495L112.716 25.732H111.941L104.906 9.45831H105.758L112.352 24.8321L116.009 16.3507L113.128 9.60191Z" fill="#202020"/>
<path d="M141.411 25.0427V25.7703H130.633V9.49661H141.162V10.2337H131.399V17.0686H139.946V17.8057H131.399V25.0427H141.411Z" fill="#202020"/>
<path d="M156.571 21.5487C156.575 22.2916 156.38 23.0221 156.007 23.6642C155.636 24.298 155.109 24.8255 154.475 25.1959C153.836 25.5778 153.105 25.7765 152.36 25.7702H144.761V9.4966H152.159C152.868 9.48205 153.563 9.69693 154.14 10.1093C154.7 10.508 155.145 11.0458 155.432 11.6696C155.721 12.2805 155.875 12.9467 155.882 13.6224C155.887 14.4215 155.672 15.2065 155.26 15.8912C154.862 16.5684 154.259 17.1015 153.537 17.4133C154.433 17.6622 155.214 18.2136 155.748 18.9736C156.289 19.7226 156.578 20.6246 156.571 21.5487ZM145.565 10.1954V17.1835H151.882C152.476 17.1908 153.058 17.0136 153.547 16.6762C154.02 16.34 154.407 15.8969 154.676 15.3829C154.946 14.8689 155.09 14.2985 155.097 13.7182C155.104 13.1178 154.97 12.5243 154.705 11.9855C154.46 11.4721 154.084 11.0328 153.614 10.7123C153.146 10.3858 152.586 10.2149 152.016 10.2241L145.565 10.1954ZM155.787 21.4817C155.794 20.8774 155.652 20.2807 155.373 19.7445C155.094 19.2084 154.687 18.7496 154.188 18.4088C153.7 18.068 153.118 17.8874 152.523 17.8919H145.565V25.0427H152.36C152.973 25.0485 153.574 24.8683 154.083 24.5258C154.6 24.1861 155.027 23.7263 155.327 23.1856C155.628 22.668 155.786 22.0802 155.787 21.4817Z" fill="#202020"/>
<path d="M165.827 25.7702V9.4966H171.196C172.695 9.43925 174.178 9.81836 175.465 10.5879C176.586 11.3034 177.477 12.3271 178.03 13.5363C178.616 14.8217 178.91 16.2209 178.892 17.6334C178.924 19.1286 178.596 20.6096 177.934 21.9507C177.343 23.1474 176.415 24.1454 175.264 24.8225C174.016 25.4931 172.612 25.8201 171.196 25.7702H165.827ZM178.049 17.5951C178.076 16.2742 177.801 14.9645 177.245 13.766C176.738 12.6808 175.927 11.7663 174.91 11.1335C173.776 10.4624 172.474 10.1302 171.158 10.1763H166.631V25.0427H171.196C172.538 25.0987 173.867 24.7664 175.025 24.0854C176.044 23.4392 176.849 22.5069 177.341 21.4051C177.851 20.2015 178.092 18.9015 178.049 17.5951Z" fill="#202020"/>
<path d="M192.952 25.0427V25.7703H182.184V9.49661H192.712V10.2337H182.95V17.0686H191.487V17.8057H182.95V25.0427H192.952Z" fill="#202020"/>
<path d="M205.49 11.8707C205.198 11.5667 204.877 11.2911 204.533 11.0474C204.214 10.8177 203.867 10.631 203.499 10.4922C203.121 10.3531 202.73 10.2505 202.331 10.1859C201.882 10.1145 201.427 10.0793 200.972 10.0806C199.643 9.96216 198.313 10.2998 197.201 11.0378C196.823 11.3697 196.525 11.7837 196.331 12.2483C196.137 12.7128 196.052 13.2156 196.081 13.7182C196.046 14.3488 196.225 14.9728 196.589 15.4892C197.013 15.9804 197.572 16.3365 198.197 16.5134C199.139 16.8162 200.098 17.0655 201.068 17.2601C202.118 17.4673 203.152 17.7521 204.16 18.1121C204.926 18.3831 205.608 18.8482 206.141 19.4618C206.645 20.1069 206.896 20.9134 206.849 21.7306C206.862 22.3633 206.724 22.9901 206.447 23.559C206.177 24.0891 205.779 24.5433 205.289 24.88C204.732 25.2521 204.113 25.5212 203.461 25.6745C202.683 25.8545 201.886 25.9412 201.087 25.933C200.267 25.9389 199.448 25.8522 198.647 25.6745C197.909 25.4977 197.197 25.2241 196.531 24.8609C195.856 24.4705 195.233 23.9979 194.674 23.4537L195.163 22.8602C195.522 23.2507 195.923 23.6006 196.359 23.9036C196.801 24.2007 197.272 24.451 197.766 24.6503C198.276 24.8517 198.805 25.0024 199.345 25.1002C199.927 25.1973 200.516 25.2453 201.106 25.2438C202.37 25.3113 203.627 25.0121 204.724 24.3822C205.403 23.894 205.862 23.158 206.001 22.3338C206.141 21.5095 205.95 20.6634 205.471 19.9788C205 19.4512 204.399 19.0554 203.729 18.83C202.758 18.4747 201.759 18.1994 200.743 18.0068C199.723 17.8118 198.718 17.543 197.737 17.2027C197.017 16.9797 196.373 16.5584 195.88 15.9869C195.431 15.3765 195.207 14.6285 195.249 13.8714C195.223 13.0035 195.471 12.1495 195.957 11.4303C196.471 10.7275 197.18 10.1915 197.996 9.88911C198.959 9.52656 199.982 9.35111 201.011 9.37218C201.655 9.3706 202.297 9.44124 202.925 9.58278C203.491 9.7121 204.036 9.92162 204.542 10.205C205.067 10.4993 205.544 10.8703 205.959 11.3059L205.49 11.8707Z" fill="#202020"/>
<path d="M209.883 25.7703V9.49661H210.687V25.7703H209.883Z" fill="#202020"/>
<path d="M221.618 25.8851C220.551 25.9009 219.497 25.6578 218.545 25.1767C217.615 24.7035 216.786 24.0531 216.104 23.2622C215.421 22.4714 214.88 21.5677 214.506 20.5914C214.139 19.6385 213.95 18.626 213.951 17.6047C213.948 16.5529 214.133 15.509 214.497 14.5223C214.857 13.5527 215.381 12.6524 216.047 11.8611C216.703 11.0923 217.507 10.4639 218.411 10.0135C219.347 9.55652 220.376 9.32381 221.417 9.33386C222.808 9.26514 224.188 9.61525 225.379 10.339C226.355 10.9766 227.145 11.8619 227.667 12.9045L226.977 13.2491C226.479 12.2274 225.676 11.3848 224.68 10.8368C223.667 10.3354 222.547 10.0859 221.417 10.1093C220.466 10.0958 219.527 10.3126 218.679 10.7411C217.865 11.1546 217.148 11.7352 216.573 12.445C215.984 13.1694 215.527 13.9926 215.224 14.8765C214.92 15.7572 214.765 16.6825 214.765 17.6143C214.756 19.5583 215.473 21.4356 216.774 22.8793C217.391 23.5719 218.139 24.1349 218.976 24.5354C219.82 24.9321 220.742 25.1349 221.675 25.1289C222.76 25.1339 223.827 24.8603 224.776 24.3343C225.879 23.701 226.841 22.8473 227.6 21.8263V22.7835C226.913 23.7306 226.014 24.5042 224.976 25.0426C223.937 25.5811 222.787 25.8696 221.618 25.8851ZM227.36 18.629H223.551V17.9397H228.049V25.7702H227.322L227.36 18.629Z" fill="#202020"/>
<path d="M232.452 10.9517V25.7702H231.648V9.4966H232.289L244.234 24.5449V9.45831H245.038V25.732H244.215L232.452 10.9517Z" fill="#202020"/>
</svg>
