<svg width="36" height="50" viewBox="0 0 36 50" fill="none" xmlns="http://www.w3.org/2000/svg">
<g clip-path="url(#clip0)">
<path d="M8.30351 3.36435V6.7287H13.6602V4.4858H10.5345V2.2429H13.6483V0H8.30351V3.36435ZM14.7101 2.19518L14.722 4.39036L16.273 4.40229H17.8239V4.78406H14.7101V6.82415H20.0668V2.33834H16.9411V1.95657H20.0549V0H14.6982L14.7101 2.19518ZM21.1525 2.19518V4.39036H24.2424V4.77213H21.1525V6.81222H26.4734V2.33834H23.3834V1.95657H26.4734V0H21.1525V2.19518ZM0.0119303 9.92603C0.0238607 9.97375 0.73968 18.1102 1.62252 28.0005C2.50537 37.8907 3.22119 45.9675 3.22119 45.9795C3.22119 45.9914 6.46624 46.8862 10.4271 47.9957L17.6211 50L24.8389 47.9957C28.8117 46.8862 32.0568 45.9795 32.0568 45.9795C32.0568 45.9795 32.7726 37.8907 33.6555 28.0243C34.5383 18.158 35.2541 10.0215 35.266 9.94989L35.278 9.84252H0L0.0119303 9.92603ZM28.6805 17.287C28.6805 17.3467 28.4658 19.7089 27.2369 33.5361C26.9267 36.9721 26.6643 39.7996 26.6523 39.8115C26.6166 39.8354 17.6927 42.3169 17.6211 42.3169C17.5614 42.3169 8.58984 39.8234 8.56597 39.7996C8.56597 39.7996 8.42281 38.2844 8.25579 36.4352C8.08876 34.5979 7.95753 33.0231 7.9456 32.9516L7.93367 32.8323H10.1527C11.3815 32.8323 12.3717 32.8323 12.3837 32.8323C12.3837 32.8323 12.4553 33.6316 12.5388 34.5979C12.6223 35.5643 12.7058 36.3517 12.7058 36.3636C12.7058 36.3636 13.8153 36.6738 15.1634 37.0317L17.6092 37.6998L20.0549 37.0317C21.403 36.6619 22.5125 36.3636 22.5245 36.3636C22.5364 36.3517 23.0255 30.8757 23.0255 30.7325V30.6251H7.74278V30.5536C7.74278 30.5178 7.65927 29.5156 7.5519 28.3465C7.44452 27.1773 7.36101 26.2109 7.36101 26.2109C7.36101 26.2109 10.9878 26.2109 15.4021 26.2109H23.4431V26.1274C23.4431 26.0916 23.5266 25.0895 23.634 23.9084C23.7414 22.7273 23.8249 21.7371 23.8249 21.7013C23.8249 21.6535 23.1806 21.6535 15.3901 21.6535L6.95538 21.6416L6.77643 19.6373C6.68098 18.5278 6.58554 17.5376 6.57361 17.4302L6.56168 17.2274H28.6805V17.287Z" fill="#020203"/>
</g>
<defs>
<clipPath id="clip0">
<rect width="35.278" height="50" fill="white"/>
</clipPath>
</defs>
</svg>
